<svg width="427" height="484" viewBox="0 0 427 484" fill="none" xmlns="http://www.w3.org/2000/svg">
<path d="M297 123.854H294.609V59.1709C294.609 54.2546 293.628 49.3864 291.723 44.8443C289.818 40.3023 287.025 36.1752 283.504 32.6989C279.984 29.2225 275.804 26.465 271.204 24.5836C266.605 22.7022 261.675 21.7339 256.696 21.7339H117.913C112.934 21.7339 108.004 22.7022 103.404 24.5836C98.8045 26.465 94.625 29.2225 91.1045 32.6989C87.5839 36.1752 84.7913 40.3023 82.886 44.8443C80.9807 49.3864 80 54.2546 80 59.1709V414.029C80 418.945 80.9807 423.813 82.886 428.355C84.7913 432.897 87.5839 437.024 91.1045 440.501C94.625 443.977 98.8045 446.734 103.404 448.616C108.004 450.497 112.934 451.466 117.913 451.466H256.696C261.675 451.466 266.605 450.497 271.204 448.616C275.804 446.734 279.984 443.977 283.504 440.501C287.025 437.024 289.818 432.897 291.723 428.355C293.628 423.813 294.609 418.945 294.609 414.029V169.897H297V123.854Z" fill="#3F3D56"/>
<path d="M286 59.5525V413.646C285.994 417.788 285.059 421.877 283.262 425.619C281.465 429.361 278.851 432.665 275.607 435.291C274.89 435.872 274.142 436.414 273.367 436.917C268.727 439.97 263.273 441.595 257.697 441.586H118.303C116.043 441.59 113.791 441.324 111.597 440.794C105.437 439.311 99.9597 435.829 96.0436 430.906C92.1275 425.984 89.9992 419.906 90 413.646V59.5525C90.0007 52.1426 92.9828 45.0363 98.2905 39.7967C103.598 34.5571 110.797 31.6132 118.303 31.6125H135.217C134.384 33.6278 134.066 35.8143 134.291 37.9794C134.516 40.1445 135.277 42.2218 136.507 44.0281C137.737 45.8345 139.398 47.3145 141.344 48.3377C143.29 49.3609 145.461 49.8959 147.666 49.8956H227.137C229.341 49.8933 231.511 49.3566 233.456 48.3329C235.401 47.3091 237.061 45.8296 238.291 44.0242C239.521 42.2189 240.283 40.143 240.51 37.9788C240.738 35.8147 240.423 33.6286 239.594 31.6125H257.697C265.203 31.6132 272.402 34.5571 277.71 39.7967C283.017 45.0363 285.999 52.1426 286 59.5525Z" fill="#6C63FF"/>
<path d="M185.648 184.735C184.272 184.735 183.157 185.811 183.157 187.138V195.656C181.928 196.585 180.99 197.853 180.502 199.317H175.568C175.504 199.238 175.444 199.155 175.378 199.078C175.072 198.725 174.751 198.385 174.417 198.059C174.083 197.734 173.735 197.423 173.374 197.127C173.013 196.83 172.639 196.549 172.254 196.283C171.868 196.017 171.47 195.767 171.061 195.533C170.652 195.299 170.232 195.08 169.801 194.879C169.37 194.678 168.929 194.494 168.478 194.327C168.027 194.16 167.567 194.01 167.097 193.878C166.709 193.77 166.319 193.675 165.925 193.593C165.532 193.511 165.137 193.443 164.739 193.388C164.342 193.333 163.944 193.292 163.544 193.264C163.144 193.237 162.744 193.223 162.343 193.223C161.873 193.223 161.407 193.242 160.944 193.279C160.482 193.317 160.024 193.372 159.57 193.445C159.117 193.519 158.668 193.61 158.226 193.718C157.783 193.826 157.347 193.951 156.917 194.092C156.488 194.233 156.065 194.39 155.65 194.563C155.235 194.736 154.828 194.925 154.429 195.129C154.03 195.333 153.641 195.551 153.26 195.784C152.88 196.017 152.51 196.264 152.15 196.525C151.79 196.786 151.44 197.06 151.102 197.347C150.764 197.634 150.438 197.935 150.124 198.247C149.81 198.56 149.508 198.884 149.22 199.221C148.932 199.557 148.657 199.905 148.397 200.264C148.136 200.622 147.89 200.992 147.659 201.372C147.428 201.752 147.212 202.142 147.013 202.541C146.813 202.941 146.63 203.35 146.463 203.768C146.297 204.186 146.148 204.613 146.017 205.049L144.158 211.215L132.447 236.394C132.167 236.783 132 237.253 132 237.762C132 248.027 140.66 256.377 151.305 256.377C154.292 256.377 157.111 255.7 159.638 254.527C159.666 254.516 159.695 254.505 159.724 254.494C160.229 254.279 160.724 254.041 161.205 253.781C161.686 253.522 162.155 253.24 162.608 252.938C163.061 252.635 163.5 252.312 163.922 251.97C164.344 251.627 164.75 251.265 165.137 250.884C165.525 250.503 165.894 250.104 166.243 249.687C166.592 249.27 166.921 248.836 167.229 248.386C167.536 247.936 167.822 247.469 168.085 246.988C168.139 246.888 168.189 246.785 168.241 246.683C169.289 244.841 170.002 242.804 170.352 240.652L171.628 236.42H183.158V267.879H161.06C160.128 267.879 159.273 268.381 158.845 269.18L151.99 281.996C151.592 282.741 151.625 283.632 152.077 284.348C152.53 285.063 153.336 285.5 154.205 285.5H221.746H221.756C223.132 285.5 224.248 284.424 224.248 283.097C224.248 282.626 224.108 282.187 223.865 281.816L217.105 269.18C216.678 268.381 215.789 267.879 214.891 267.879H192.794V235.625H192.814V236.572H204.435L205.628 240.531C207.022 249.483 215.029 256.377 224.695 256.377C235.34 256.377 244 248.027 244 237.763C244 237.195 243.787 236.679 243.445 236.268L243.443 236.268L232.57 212.889L230.202 205.035C230.07 204.6 229.921 204.173 229.755 203.755C229.589 203.337 229.405 202.927 229.206 202.528C229.006 202.128 228.79 201.738 228.559 201.358C228.328 200.978 228.082 200.608 227.822 200.25C227.561 199.891 227.286 199.543 226.998 199.207C226.71 198.87 226.409 198.546 226.095 198.233C225.781 197.921 225.454 197.621 225.116 197.333C224.779 197.046 224.429 196.772 224.069 196.511C223.709 196.25 223.338 196.003 222.958 195.77C222.578 195.537 222.188 195.319 221.79 195.115C221.391 194.911 220.984 194.723 220.569 194.55C220.154 194.377 219.731 194.219 219.301 194.078C218.871 193.937 218.435 193.812 217.992 193.704C217.55 193.596 217.101 193.505 216.648 193.432C216.195 193.359 215.736 193.303 215.274 193.266C214.812 193.228 214.345 193.209 213.875 193.209C213.475 193.209 213.074 193.223 212.674 193.251C212.275 193.278 211.876 193.319 211.479 193.374C211.082 193.429 210.686 193.497 210.293 193.579C209.9 193.661 209.509 193.756 209.121 193.865C208.652 193.996 208.191 194.146 207.74 194.313C207.289 194.48 206.848 194.665 206.417 194.866C205.987 195.067 205.566 195.285 205.157 195.519C204.748 195.753 204.35 196.004 203.965 196.27C203.579 196.535 203.205 196.817 202.844 197.113C202.484 197.409 202.136 197.72 201.802 198.046C201.467 198.371 201.147 198.711 200.84 199.064C200.77 199.145 200.707 199.233 200.64 199.317H195.526C195.028 197.822 194.059 196.532 192.792 195.599V187.138C192.792 185.811 191.676 184.735 190.3 184.735H185.648ZM188.013 198.836C189.615 198.836 190.92 200.094 190.92 201.64C190.92 203.186 189.615 204.443 188.013 204.443C186.409 204.443 185.105 203.185 185.105 201.64C185.105 200.094 186.409 198.836 188.013 198.836ZM151.302 207.592L164.216 235.36H138.388L151.302 207.592ZM224.644 207.592L237.558 235.36H211.729L224.644 207.592ZM192.814 207.663V208.292H192.794V207.681C192.801 207.675 192.807 207.669 192.814 207.663Z" fill="white"/>
<path d="M380.844 61.787C378.975 65.3577 375.507 67.9482 371.694 69.3453C368.961 70.3464 366.049 70.7826 363.138 70.627C360.227 70.4714 357.379 69.7273 354.77 68.4407C352.161 67.1541 349.846 65.3523 347.969 63.1468C346.093 60.9413 344.693 58.3788 343.858 55.6179C342.916 52.5186 342.707 49.2279 341.652 46.1605C339.046 38.5841 331.568 33.1402 329.932 25.3001L334.003 25.3922C331.269 25.3197 328.535 25.2473 325.801 25.1748C324.875 25.1903 323.951 25.0809 323.055 24.8496C320.455 24.0463 318.905 21.0935 319.272 18.4238C319.643 15.7527 321.622 13.4769 324.038 12.2226C325.692 11.4012 327.491 10.9054 329.337 10.763C330.214 10.6746 331.096 10.6387 331.978 10.6556C334.12 9.21829 336.565 8.2819 339.128 7.91743C341.69 7.55297 344.304 7.76999 346.769 8.55205C349.78 9.55224 352.448 11.3657 354.471 13.7871C355.757 15.3118 356.754 17.0533 357.415 18.9279C359.195 24.0306 358.51 30.0293 360.277 34.9449C360.741 36.2947 361.44 37.5539 362.343 38.666C366.958 44.2597 376.4 44.3229 380.492 50.3051C382.77 53.6349 382.713 58.2163 380.844 61.787Z" fill="#2F2E41"/>
<path d="M412.221 161.935L409.579 166.597L389.678 159.499L393.578 152.618L412.221 161.935Z" fill="#9E616A"/>
<path d="M423.242 164.085L421.348 167.491L420.144 169.656L415.119 178.69C414.878 179.123 414.501 179.473 414.044 179.687C413.586 179.901 413.071 179.97 412.575 179.882C412.078 179.795 411.626 179.556 411.284 179.2C410.942 178.845 410.728 178.391 410.674 177.906L409.567 168.083L406.226 166.381L410.912 159.029L423.242 164.085Z" fill="#2F2E41"/>
<path d="M379.657 178.798L375.407 182.402L359.135 168.965L365.406 163.648L379.657 178.798Z" fill="#9E616A"/>
<path d="M388.797 185.235L385.963 187.791L384.161 189.416L376.644 196.196C376.283 196.521 375.828 196.719 375.344 196.762C374.86 196.805 374.373 196.69 373.954 196.434C373.535 196.178 373.206 195.794 373.015 195.339C372.824 194.884 372.78 194.381 372.891 193.903L375.137 184.237L372.685 181.463L379.341 176.155L388.797 185.235Z" fill="#2F2E41"/>
<path d="M360.229 83.9453C360.229 83.9453 366.577 90.122 370.84 93.2081C374.758 95.9865 374.938 97.9981 375.885 102.664C376.525 106.012 378.902 111.984 376.752 115.605L383.686 144.424L404.821 157.921C404.821 157.921 400.986 168.759 399.676 165.5L369.839 150.544L343.611 108.066L340.907 90.3672L360.229 83.9453Z" fill="#2F2E41"/>
<path d="M369.544 90.5463C369.544 90.5463 372.092 99.0022 374.325 103.746C376.407 108.055 376.748 112.983 375.282 117.541C374.196 120.792 372.171 124.108 368.492 126.273L361.217 152.024L374.913 171.12C374.913 171.12 365.823 180.327 366.275 176.835L345.144 152.945L343.015 103.879L349.358 87.0122L369.544 90.5463Z" fill="#2F2E41"/>
<path d="M347.291 41.4297L347.212 41.3855L336.236 44.726L334.633 65.2646C339.533 80.1277 338.662 87.3503 338.662 87.3503L341.141 91.5001L342.007 92.6797L377.014 97.703L363.284 66.1313C362.859 61.03 361.176 56.1052 358.386 51.7954C355.596 47.4856 351.784 43.9246 347.291 41.4297Z" fill="#6C63FF"/>
<path d="M310.185 92.8052C310.61 92.8046 311.033 92.7172 311.424 92.5489C311.816 92.3807 312.166 92.1357 312.45 91.8314C312.734 91.527 312.945 91.1706 313.068 90.7873C313.192 90.4039 313.225 90.003 313.165 89.6127L322.351 84.8914L317.669 82.5963L309.663 87.4317C308.962 87.593 308.34 87.9864 307.915 88.5373C307.49 89.0882 307.29 89.7583 307.355 90.4206C307.419 91.083 307.743 91.6915 308.264 92.131C308.786 92.5705 309.469 92.8104 310.185 92.8052Z" fill="#9E616A"/>
<path d="M315.513 88.3415L313.495 83.0334L329.047 73.8079L337.191 55.0792C337.594 54.1535 338.199 53.3245 338.965 52.6512C339.73 51.9778 340.637 51.4766 341.62 51.1831C342.603 50.8896 343.639 50.8111 344.654 50.953C345.669 51.0949 346.639 51.4538 347.493 52.0043C349.036 53.0003 350.108 54.5565 350.474 56.3316C350.839 58.1067 350.47 59.9556 349.445 61.4727L336.498 80.5987L315.513 88.3415Z" fill="#6C63FF"/>
<path d="M388.436 94.7932C388.481 94.4037 388.44 94.0085 388.315 93.6355C388.191 93.2625 387.986 92.9208 387.715 92.6344C387.445 92.3481 387.115 92.124 386.749 91.978C386.383 91.8321 385.99 91.7678 385.597 91.7896L381.91 82.966L379.138 87.0624L383.064 94.8135C383.148 95.4692 383.471 96.0728 383.97 96.5097C384.47 96.9466 385.111 97.1866 385.773 97.1841C386.436 97.1816 387.072 96.9368 387.563 96.4962C388.054 96.0555 388.365 95.4496 388.436 94.7932Z" fill="#9E616A"/>
<path d="M384.543 89.4149L378.953 90.8715L371.249 74.8936L353.136 65.2079C352.241 64.7291 351.465 64.0625 350.864 63.2553C350.263 62.4482 349.85 61.5203 349.657 60.5376C349.463 59.5548 349.493 58.5413 349.744 57.5691C349.995 56.5968 350.461 55.6895 351.109 54.9118C352.28 53.5082 353.97 52.615 355.807 52.4281C357.644 52.2411 359.478 52.7758 360.906 53.9147L378.914 68.302L384.543 89.4149Z" fill="#6C63FF"/>
<path d="M324.347 25.4619C324.306 22.3291 325.472 19.2981 327.609 16.9831C329.746 14.668 332.694 13.242 335.856 12.9938C339.017 12.7457 342.156 13.6941 344.636 15.6468C347.116 17.5994 348.752 20.4104 349.213 23.5103C349.674 26.6102 348.924 29.7671 347.117 32.3415C345.309 34.9159 342.579 36.7154 339.478 37.3752C336.378 38.0351 333.14 37.5061 330.419 35.8954C327.699 34.2847 325.7 31.7127 324.828 28.7004C324.523 27.6468 324.361 26.5577 324.347 25.4619Z" fill="#9E616A"/>
<path d="M343.05 94.3596C340.884 94.9625 338.607 95.0525 336.412 94.6218C334.217 94.1911 332.17 93.2525 330.443 91.8859C329.474 91.0862 328.529 90.022 328.579 88.7072C328.564 88.2548 328.719 87.8102 329.015 87.4558C329.312 87.1014 329.729 86.8611 330.191 86.7793C331.202 86.636 332.247 87.1168 333.089 87.5901C334.243 88.2801 335.342 89.0516 336.377 89.8983C337.99 91.1473 340.98 93.0624 339.784 95.4405C338.778 97.4406 336.353 98.27 334.547 99.3984C332.595 100.618 330.815 102.62 331.3 105.014C331.772 107.342 334.484 108.237 336.671 107.976C337.972 107.795 339.211 107.309 340.28 106.56C341.349 105.811 342.215 104.823 342.803 103.682C343.928 101.365 344.149 98.743 343.427 96.3036C343.37 96.1197 343.241 95.9653 343.068 95.8729C342.895 95.7805 342.69 95.7573 342.497 95.8081C342.305 95.859 342.139 95.98 342.035 96.1456C341.931 96.3112 341.897 96.5085 341.941 96.6958C342.548 98.9321 342.448 101.419 341.188 103.462C340.008 105.374 337.663 106.788 335.327 106.517C334.171 106.383 332.952 105.758 332.775 104.548C332.613 103.438 333.272 102.346 334.074 101.597C335.89 99.9045 338.476 99.2792 340.19 97.4331C341.825 95.6727 342.034 93.4397 340.517 91.5626C339.609 90.54 338.582 89.6225 337.456 88.8277C336.384 87.9613 335.258 87.1595 334.083 86.4266C332.339 85.3888 329.849 84.6087 328.129 86.1859C326.17 87.9834 327.157 90.8265 328.763 92.4151C332.426 96.0377 338.444 97.1795 343.436 95.7915C343.627 95.7342 343.788 95.6078 343.886 95.4389C343.983 95.27 344.01 95.0718 343.96 94.8861C343.91 94.7005 343.787 94.5418 343.617 94.4436C343.448 94.3453 343.244 94.3153 343.05 94.3596Z" fill="#2F2E41"/>
<path d="M360.098 34.6681L340.076 36.2196C338.36 32.8582 343.333 26.2727 343.296 19.9642C340.242 20.4489 336.119 20.9837 332.477 21.1919C328.833 21.3955 325.666 21.2784 324.523 20.4498C324.292 17.38 325.314 14.3399 327.365 11.9977C329.416 9.65547 332.328 8.20278 335.461 7.95886L337.917 7.76861C337.997 7.76112 338.078 7.75827 338.16 7.75542C341.186 7.57583 344.161 8.54591 346.466 10.464C349.216 11.08 351.854 12.1001 354.289 13.49C355.585 15.0138 356.587 16.7557 357.25 18.6318C359.034 23.7384 358.327 29.7489 360.098 34.6681Z" fill="#2F2E41"/>
<path d="M299.097 292.538C299.21 293.002 299.423 293.436 299.723 293.809C300.023 294.183 300.401 294.486 300.832 294.698C301.262 294.911 301.735 295.027 302.215 295.038C302.696 295.049 303.173 294.956 303.613 294.764L311.552 303.282L313 297.424L305.239 290.233C304.866 289.52 304.242 288.967 303.487 288.68C302.731 288.393 301.895 288.391 301.138 288.675C300.381 288.959 299.755 289.509 299.379 290.221C299.003 290.933 298.902 291.757 299.097 292.538Z" fill="#9E616A"/>
<path d="M306 297.295L311.69 293.403L327.238 308.202L351.846 311.739C353.062 311.914 354.224 312.348 355.249 313.01C356.274 313.672 357.137 314.545 357.777 315.569C358.417 316.592 358.817 317.741 358.951 318.932C359.084 320.123 358.946 321.329 358.548 322.463C357.826 324.51 356.3 326.194 354.306 327.146C352.311 328.098 350.011 328.24 347.909 327.541L321.404 318.69L306 297.295Z" fill="#E6E6E6"/>
<path d="M354.999 471.223H348.223L345 446.526H355L354.999 471.223Z" fill="#9E616A"/>
<path d="M358 483.077H338.686C338.113 483.078 337.555 482.894 337.094 482.554C336.633 482.215 336.292 481.736 336.122 481.188C335.951 480.641 335.96 480.053 336.147 479.511C336.334 478.969 336.688 478.501 337.16 478.175L346.7 471.577V467.271L356.735 467.871L358 483.077Z" fill="#2F2E41"/>
<path d="M348.975 353.664C348.975 353.664 354.192 362.984 358.047 368C361.608 372.543 361.149 374.955 360.69 380.726C360.315 384.853 361.059 392.623 357.403 396.148L354.456 462.572C354.456 462.572 345.512 465.101 345.091 460.857L322 376.395L324.759 354.8L348.975 353.664Z" fill="#2F2E41"/>
<path d="M305.768 470.235L300 467.21L309.488 444.55L318 449.014L305.768 470.235Z" fill="#9E616A"/>
<path d="M302.672 483.078L298.649 480.853L296.091 479.439L285.419 473.539C284.907 473.257 284.499 472.817 284.254 472.284C284.008 471.752 283.939 471.154 284.055 470.579C284.171 470.004 284.467 469.481 284.9 469.087C285.333 468.693 285.879 468.448 286.46 468.389L298.218 467.182L300.33 463.32L309 468.813L302.672 483.078Z" fill="#2F2E41"/>
<path d="M357.573 365.299C357.573 365.299 357.691 375.883 358.683 382.083C359.645 387.731 358.399 393.527 355.196 398.309C352.865 401.706 349.432 404.873 344.479 406.172L309.69 462.332C309.69 462.332 300.524 460.229 302.206 456.348L322.613 372.045L335.522 354.652L357.573 365.299Z" fill="#2F2E41"/>
<path d="M348.081 301.382L348.002 301.306L333.874 301.586L324.954 324.603C325.668 343.22 322.167 351.214 322.167 351.214L323.681 356.771L319 384.289L364 375.476L358.554 334.859C359.796 328.876 359.489 322.688 357.662 316.847C355.835 311.007 352.543 305.694 348.081 301.382Z" fill="#E6E6E6"/>
<path d="M356.845 363.257C357.111 362.831 357.281 362.353 357.343 361.855C357.405 361.358 357.357 360.854 357.204 360.379C357.05 359.904 356.794 359.469 356.454 359.105C356.114 358.742 355.697 358.458 355.234 358.274L355.85 346.114L350.412 349.369L350.661 360.417C350.398 361.219 350.437 362.089 350.77 362.86C351.104 363.631 351.709 364.25 352.471 364.6C353.233 364.95 354.1 365.007 354.906 364.759C355.712 364.512 356.402 363.978 356.845 363.257Z" fill="#9E616A"/>
<path d="M355.919 355.784L348.914 354.506L348.75 332.795L333.654 312.675C332.908 311.68 332.394 310.539 332.149 309.332C331.904 308.126 331.934 306.883 332.237 305.693C332.539 304.503 333.107 303.394 333.9 302.446C334.693 301.497 335.692 300.732 336.825 300.205C338.873 299.255 341.229 299.139 343.377 299.883C345.525 300.627 347.289 302.169 348.282 304.172L360.781 329.453L355.919 355.784Z" fill="#E6E6E6"/>
<path d="M327.507 275.686C328.472 272.058 330.75 268.941 333.881 266.965C337.011 264.989 340.758 264.303 344.365 265.046C347.971 265.789 351.167 267.905 353.303 270.966C355.44 274.026 356.359 277.802 355.873 281.529C355.387 285.256 353.533 288.655 350.687 291.037C347.841 293.419 344.215 294.606 340.544 294.359C336.873 294.111 333.432 292.446 330.917 289.702C328.402 286.958 327.002 283.34 327 279.58C326.999 278.265 327.17 276.955 327.507 275.686Z" fill="#9E616A"/>
<path d="M332.438 259.816C333.646 259.78 348.671 260.553 350.781 260.585C352.891 260.616 355.031 260.545 357.077 261.063C359.124 261.581 361.114 262.799 361.988 264.726C362.862 266.652 363.064 271.435 363.576 272.829C363.996 274.259 364.106 275.762 363.897 277.238C363.481 282.702 362.467 288.585 358.5 292.354C355.477 295.226 351.15 296.383 346.986 296.366C342.822 296.35 343.554 295.966 339.529 294.9C339.529 294.9 335.701 283.893 336.665 282.81C337.629 281.727 338.429 280.342 338.255 278.901C338.08 277.46 336.537 276.169 335.197 276.717C335.422 276.14 335.592 276.03 335.698 276.059C335.63 275.895 335.571 275.727 335.521 275.557C335.269 274.689 334.815 273.893 334.196 273.235C333.578 272.577 332.813 272.076 331.963 271.772C331.106 271.493 330.183 271.484 329.32 271.746C328.457 272.008 327.694 272.529 327.135 273.238C322.727 269.091 325.461 260.024 332.438 259.816Z" fill="#2F2E41"/>
<path d="M48.8758 367.399C48.4058 367.287 47.9664 367.076 47.5885 366.78C47.2106 366.484 46.9034 366.11 46.6885 365.685C46.4736 365.259 46.3562 364.793 46.3447 364.318C46.3332 363.844 46.4278 363.372 46.6218 362.937L38 355.095L43.93 353.664L51.2083 361.331C51.9305 361.699 52.4899 362.316 52.7807 363.062C53.0714 363.809 53.0732 364.635 52.7856 365.382C52.4981 366.13 51.9413 366.749 51.2207 367.12C50.5001 367.492 49.6658 367.591 48.8758 367.399Z" fill="#FFB6B6"/>
<path d="M23.4029 345.649L14.4437 319.959C13.7358 317.922 13.8794 315.692 14.843 313.759C15.8067 311.826 17.5116 310.347 19.5838 309.647C20.7316 309.261 21.9518 309.128 23.1578 309.257C24.3638 309.386 25.5261 309.775 26.5622 310.395C27.5983 311.015 28.4827 311.851 29.1526 312.845C29.8226 313.838 30.2617 314.964 30.4387 316.143L34.0197 339.995L49 355.065L45.0598 360.579L23.4029 345.649Z" fill="#3F3D56"/>
<path d="M9.00111 467.271H15.0991L18 442.574H9L9.00111 467.271Z" fill="#FFB6B6"/>
<path d="M6.26528 463.92L16.3 463.32V467.625L25.8403 474.224C26.3115 474.549 26.6665 475.018 26.8532 475.56C27.0399 476.102 27.0487 476.69 26.8783 477.237C26.7079 477.785 26.3672 478.263 25.9059 478.603C25.4446 478.943 24.887 479.126 24.3143 479.126H5L6.26528 463.92Z" fill="#2F2E41"/>
<path d="M14.0533 353.109C14.0533 353.109 12.0442 351.051 8.19383 355.912C4.63658 360.314 4.81344 361.174 5.27245 366.766C5.64639 370.764 1.98215 390.861 5.63386 394.277L8.5786 458.643C8.5786 458.643 17.5125 461.095 17.9332 456.982L41 375.135L38.2439 354.209L14.0533 353.109Z" fill="#2F2E41"/>
<path d="M56.2323 466.283L62 463.258L52.5127 440.598L44 445.063L56.2323 466.283Z" fill="#FFB6B6"/>
<path d="M53 464.862L61.3231 459.368L63.3502 463.23L74.6384 464.437C75.1959 464.496 75.7207 464.741 76.1361 465.135C76.5515 465.529 76.8357 466.052 76.9473 466.627C77.059 467.202 76.9921 467.8 76.7565 468.332C76.521 468.865 76.129 469.305 75.6379 469.588L65.3927 475.488L62.9373 476.901L59.0744 479.126L53 464.862Z" fill="#2F2E41"/>
<path d="M5.40244 364.116C5.40244 364.116 5.28627 374.506 4.31118 380.591C3.36656 386.136 4.59057 391.826 7.73739 396.52C10.0274 399.854 13.4003 402.963 18.2664 404.239L52.445 459.368C52.445 459.368 61.4498 457.304 59.7976 453.494L39.7488 370.738L27.0663 353.664L5.40244 364.116Z" fill="#2F2E41"/>
<path d="M5.01811 335.164L4 367.495L37.9474 358.229L38.5447 356.63L40 351.187C40 351.187 36.6341 343.354 37.3204 325.117L28.7453 302.568L15.1625 302.294L15.0868 302.369C10.7969 306.592 7.63271 311.797 5.876 317.519C4.11928 323.241 3.82457 329.303 5.01811 335.164Z" fill="#3F3D56"/>
<path d="M72.6358 348.579C72.1759 348.722 71.691 348.76 71.2151 348.691C70.7393 348.621 70.2841 348.446 69.8816 348.176C69.4791 347.907 69.1391 347.55 68.8856 347.131C68.6321 346.712 68.4712 346.241 68.4143 345.752L57 343.192L61.3481 338.846L71.5207 341.943C72.3288 341.899 73.1245 342.161 73.7569 342.679C74.3893 343.197 74.8145 343.935 74.952 344.753C75.0894 345.571 74.9295 346.412 74.5027 347.117C74.0758 347.822 73.4115 348.342 72.6358 348.579Z" fill="#FFB6B6"/>
<path d="M39.4934 342.718L18.8356 325.274C17.1997 323.89 16.1884 321.923 16.0238 319.806C15.8591 317.688 16.5545 315.593 17.9574 313.979C18.7351 313.087 19.7028 312.374 20.7919 311.891C21.8809 311.409 23.0646 311.168 24.2589 311.186C25.4532 311.204 26.6287 311.481 27.7022 311.996C28.7756 312.512 29.7205 313.254 30.4699 314.17L45.6295 332.693L66 338.147L65.4589 344.773L39.4934 342.718Z" fill="#3F3D56"/>
<path d="M36 281.062C35.9982 284.696 34.598 288.194 32.0831 290.846C29.5682 293.499 26.1267 295.108 22.4558 295.348C18.7849 295.587 15.159 294.439 12.3128 292.137C9.46654 289.834 7.61276 286.548 7.127 282.946C6.64124 279.343 7.55981 275.693 9.69662 272.734C11.8334 269.776 15.0287 267.73 18.6351 267.012C22.2415 266.294 25.9894 266.957 29.1194 268.867C32.2495 270.777 34.5277 273.791 35.4925 277.298C35.83 278.525 36.0006 279.79 36 281.062Z" fill="#FFB8B8"/>
<path d="M30.7524 261.891C29.576 261.856 29.9798 259.641 29.032 258.935C29.0274 258.956 29.0226 258.978 29.0177 258.999C28.8934 259.477 28.6186 259.903 28.2338 260.214C27.849 260.525 27.3744 260.704 26.88 260.725C26.3856 260.746 25.8975 260.608 25.4876 260.331C25.0777 260.054 24.7676 259.653 24.603 259.187C24.4458 258.648 24.1612 258.154 23.7733 257.748C23.3854 257.341 22.9054 257.034 22.3737 256.851C22.3147 258.904 20.76 260.686 18.9054 261.573C17.0507 262.459 14.936 262.607 12.8801 262.637C10.8242 262.668 8.73868 262.599 6.74501 263.101C4.75138 263.604 2.8122 264.786 1.96042 266.655C1.10861 268.524 1.71636 271.098 3.5789 271.968C2.13601 271.976 0.911683 273.165 0.412775 274.517C0.0038215 275.905 -0.102871 277.363 0.0999054 278.795C0.505412 284.097 1.49407 289.805 5.35895 293.461C8.30454 296.248 12.5207 297.371 16.5776 297.354C20.6346 297.338 19.9213 296.966 23.8439 295.931C23.8439 295.931 27.5732 285.252 26.6341 284.201C25.6951 283.151 24.9151 281.807 25.085 280.408C25.255 279.01 26.7592 277.758 28.0646 278.29C27.8451 277.729 27.6797 277.623 27.5761 277.651C27.6421 277.492 27.6996 277.329 27.7486 277.164C27.9943 276.322 28.4367 275.55 29.0393 274.911C29.642 274.273 30.3877 273.787 31.2151 273.492C32.0509 273.221 32.9497 273.212 33.7907 273.466C34.6318 273.721 35.3748 274.226 35.9199 274.914C40.2152 270.891 37.5504 262.093 30.7524 261.891Z" fill="#2F2E41"/>
</svg>
