<svg width="217" height="431" viewBox="0 0 217 431" fill="none" xmlns="http://www.w3.org/2000/svg">
<path d="M217 102.854H214.609V38.1709C214.609 33.2546 213.628 28.3864 211.723 23.8443C209.818 19.3023 207.025 15.1752 203.504 11.6989C199.984 8.22254 195.804 5.46496 191.204 3.58358C186.605 1.7022 181.675 0.733875 176.696 0.733887H37.913C32.9342 0.733875 28.0042 1.7022 23.4044 3.58358C18.8045 5.46496 14.625 8.22254 11.1045 11.6989C7.58392 15.1752 4.79128 19.3023 2.88597 23.8443C0.980655 28.3864 0 33.2546 0 38.1709V393.029C0 397.945 0.980655 402.813 2.88597 407.355C4.79128 411.897 7.58392 416.024 11.1045 419.501C14.625 422.977 18.8045 425.734 23.4044 427.616C28.0042 429.497 32.9342 430.466 37.913 430.466H176.696C181.675 430.466 186.605 429.497 191.204 427.616C195.804 425.734 199.984 422.977 203.504 419.501C207.025 416.024 209.818 411.897 211.723 407.355C213.628 402.813 214.609 397.945 214.609 393.029V148.897H217V102.854Z" fill="#3F3D56"/>
<path d="M206 38.5525V392.646C205.994 396.788 205.059 400.877 203.262 404.619C201.465 408.361 198.851 411.665 195.607 414.291C194.89 414.872 194.142 415.414 193.367 415.917C188.727 418.97 183.273 420.595 177.697 420.586H38.3029C36.0432 420.59 33.7914 420.324 31.5966 419.794C25.4367 418.311 19.9597 414.829 16.0436 409.906C12.1275 404.984 9.99921 398.906 10 392.646V38.5525C10.0007 31.1426 12.9828 24.0363 18.2905 18.7967C23.5981 13.5571 30.7967 10.6132 38.3029 10.6125H55.2171C54.3843 12.6278 54.0664 14.8143 54.2914 16.9794C54.5164 19.1445 55.2774 21.2218 56.5073 23.0281C57.7373 24.8345 59.3984 26.3145 61.3443 27.3377C63.2902 28.3609 65.4612 28.8959 67.6659 28.8956H147.137C149.341 28.8933 151.511 28.3566 153.456 27.3329C155.401 26.3091 157.061 24.8296 158.291 23.0242C159.521 21.2189 160.283 19.143 160.51 16.9788C160.738 14.8147 160.423 12.6286 159.594 10.6125H177.697C185.203 10.6132 192.402 13.5571 197.71 18.7967C203.017 24.0363 205.999 31.1426 206 38.5525Z" fill="#6C63FF"/>
<path d="M105.648 163.735C104.272 163.735 103.157 164.811 103.157 166.138V174.656C101.928 175.585 100.99 176.853 100.502 178.317H95.5678C95.5044 178.238 95.4443 178.155 95.3778 178.078C95.0717 177.725 94.751 177.385 94.4168 177.059C94.0825 176.734 93.7348 176.423 93.374 176.127C93.0132 175.83 92.6395 175.549 92.2538 175.283C91.8681 175.017 91.4702 174.767 91.0611 174.533C90.6521 174.299 90.232 174.08 89.8012 173.879C89.3704 173.678 88.929 173.494 88.4781 173.327C88.0272 173.16 87.5667 173.01 87.0972 172.878C86.7094 172.77 86.3187 172.675 85.9255 172.593C85.5323 172.511 85.1366 172.443 84.7395 172.388C84.3423 172.333 83.9435 172.292 83.5439 172.264C83.1442 172.237 82.7436 172.223 82.3428 172.223C81.8732 172.223 81.4068 172.242 80.9444 172.279C80.482 172.317 80.0237 172.372 79.5703 172.445C79.117 172.519 78.6684 172.61 78.2259 172.718C77.7835 172.826 77.3471 172.951 76.9175 173.092C76.4878 173.233 76.0649 173.39 75.6498 173.563C75.2347 173.736 74.8275 173.925 74.429 174.129C74.0304 174.333 73.6405 174.551 73.2603 174.784C72.8801 175.017 72.5096 175.264 72.1496 175.525C71.7896 175.786 71.44 176.06 71.1021 176.347C70.7642 176.634 70.438 176.935 70.124 177.247C69.81 177.56 69.5084 177.884 69.2202 178.221C68.9321 178.557 68.6572 178.905 68.3967 179.264C68.1362 179.622 67.8899 179.992 67.6589 180.372C67.428 180.752 67.2123 181.142 67.0127 181.541C66.8132 181.941 66.6298 182.35 66.4635 182.768C66.2972 183.186 66.1479 183.613 66.0167 184.049L64.1576 190.215L52.4471 215.394C52.167 215.783 52 216.253 52 216.762C52 227.027 60.6601 235.377 71.3047 235.377C74.2918 235.377 77.1112 234.7 79.6383 233.527C79.6665 233.516 79.6954 233.505 79.7236 233.494C80.2293 233.279 80.7237 233.041 81.2049 232.781C81.6862 232.522 82.1545 232.24 82.6079 231.938C83.0614 231.635 83.5001 231.312 83.9222 230.97C84.3443 230.627 84.7499 230.265 85.1372 229.884C85.5246 229.503 85.8938 229.104 86.243 228.687C86.5922 228.27 86.9214 227.836 87.2289 227.386C87.5365 226.936 87.8223 226.469 88.0848 225.988C88.1393 225.888 88.1886 225.785 88.241 225.683C89.2889 223.841 90.0021 221.804 90.3524 219.652L91.6284 215.42H103.158V246.879H81.0601C80.1276 246.879 79.2728 247.381 78.8452 248.18L71.9904 260.996C71.5922 261.741 71.6251 262.632 72.0772 263.348C72.5297 264.063 73.3355 264.5 74.2052 264.5H141.746H141.756C143.132 264.5 144.248 263.424 144.248 262.097C144.248 261.626 144.108 261.187 143.865 260.816L137.105 248.18C136.678 247.381 135.789 246.879 134.891 246.879H112.794V214.625H112.814V215.572H124.435L125.628 219.531C127.022 228.483 135.029 235.377 144.695 235.377C155.34 235.377 164 227.027 164 216.763C164 216.195 163.787 215.679 163.445 215.268L163.443 215.268L152.57 191.889L150.202 184.035C150.07 183.6 149.921 183.173 149.755 182.755C149.589 182.337 149.405 181.927 149.206 181.528C149.006 181.128 148.79 180.738 148.559 180.358C148.328 179.978 148.082 179.608 147.822 179.25C147.561 178.891 147.286 178.543 146.998 178.207C146.71 177.87 146.409 177.546 146.095 177.233C145.781 176.921 145.454 176.621 145.116 176.333C144.779 176.046 144.429 175.772 144.069 175.511C143.709 175.25 143.338 175.003 142.958 174.77C142.578 174.537 142.188 174.319 141.79 174.115C141.391 173.911 140.984 173.723 140.569 173.55C140.154 173.377 139.731 173.219 139.301 173.078C138.871 172.937 138.435 172.812 137.992 172.704C137.55 172.596 137.101 172.505 136.648 172.432C136.195 172.359 135.736 172.303 135.274 172.266C134.812 172.228 134.345 172.209 133.875 172.209C133.475 172.209 133.074 172.223 132.674 172.251C132.275 172.278 131.876 172.319 131.479 172.374C131.082 172.429 130.686 172.497 130.293 172.579C129.9 172.661 129.509 172.756 129.121 172.865C128.652 172.996 128.191 173.146 127.74 173.313C127.289 173.48 126.848 173.665 126.417 173.866C125.987 174.067 125.566 174.285 125.157 174.519C124.748 174.753 124.35 175.004 123.965 175.27C123.579 175.535 123.205 175.817 122.844 176.113C122.484 176.409 122.136 176.72 121.802 177.046C121.467 177.371 121.147 177.711 120.84 178.064C120.77 178.145 120.707 178.233 120.64 178.317H115.526C115.028 176.822 114.059 175.532 112.792 174.599V166.138C112.792 164.811 111.676 163.735 110.3 163.735H105.648ZM108.013 177.836C109.615 177.836 110.92 179.094 110.92 180.64C110.92 182.186 109.615 183.443 108.013 183.443C106.409 183.443 105.105 182.185 105.105 180.64C105.105 179.094 106.409 177.836 108.013 177.836ZM71.3018 186.592L84.2161 214.36H58.3876L71.3018 186.592ZM144.644 186.592L157.558 214.36H131.729L144.644 186.592ZM112.814 186.663V187.292H112.794V186.681C112.801 186.675 112.807 186.669 112.814 186.663Z" fill="white"/>
</svg>
