<svg width="32" height="30" viewBox="0 0 32 30" fill="none" xmlns="http://www.w3.org/2000/svg">
<path d="M15.3281 0.5C14.935 0.5 14.6162 0.809689 14.6162 1.19156V3.64293C14.2651 3.91028 13.9971 4.27524 13.8577 4.69667H12.4479C12.4298 4.67372 12.4127 4.64991 12.3936 4.6278C12.3062 4.5261 12.2146 4.42831 12.1191 4.33464C12.0236 4.24098 11.9242 4.15146 11.8211 4.06619C11.7181 3.98092 11.6113 3.89994 11.5011 3.82343C11.3909 3.74692 11.2772 3.67486 11.1603 3.60747C11.0435 3.54008 10.9234 3.47732 10.8003 3.41941C10.6773 3.36151 10.5512 3.30846 10.4223 3.26039C10.2935 3.21232 10.1619 3.16925 10.0278 3.13138C9.91696 3.1001 9.80533 3.0727 9.69299 3.04914C9.58064 3.02559 9.46761 3.00593 9.35414 2.99016C9.24066 2.97441 9.12672 2.96255 9.01253 2.95464C8.89833 2.94673 8.78389 2.94278 8.66937 2.94278C8.5352 2.94278 8.40195 2.94824 8.26984 2.95897C8.13772 2.96971 8.00677 2.98567 7.87723 3.00676C7.7477 3.02786 7.61953 3.05407 7.49312 3.08512C7.36671 3.11617 7.24203 3.15213 7.11927 3.19276C6.9965 3.23339 6.87568 3.27866 6.75709 3.32847C6.6385 3.37829 6.52214 3.43264 6.40828 3.49126C6.2944 3.54987 6.18301 3.61279 6.07438 3.67981C5.96575 3.74683 5.85988 3.81797 5.75703 3.89302C5.65418 3.96806 5.55428 4.047 5.45774 4.12967C5.36119 4.21235 5.26799 4.29877 5.17828 4.3887C5.08858 4.47862 5.00239 4.57207 4.92006 4.66885C4.83773 4.76563 4.75921 4.86575 4.68478 4.969C4.61035 5.07225 4.53998 5.17861 4.47399 5.28793C4.40799 5.39726 4.34637 5.50957 4.28935 5.6246C4.23233 5.73962 4.17994 5.85737 4.13242 5.9777C4.0849 6.09802 4.04226 6.22091 4.00478 6.34615L3.47361 8.12089L0.127754 15.3673C0.0477167 15.4792 0 15.6146 0 15.7612C0 18.7152 2.47432 21.1185 5.51563 21.1185C6.36908 21.1185 7.17464 20.9237 7.89665 20.5861C7.9047 20.5827 7.91299 20.5798 7.92102 20.5764C8.06551 20.5145 8.20676 20.4461 8.34427 20.3714C8.48178 20.2966 8.61558 20.2156 8.74513 20.1286C8.87467 20.0416 9.00003 19.9486 9.12064 19.8499C9.24124 19.7513 9.35711 19.6471 9.46778 19.5375C9.57847 19.4279 9.68395 19.3129 9.7837 19.193C9.88348 19.0731 9.97754 18.9482 10.0654 18.8187C10.1533 18.6891 10.235 18.5548 10.3099 18.4162C10.3255 18.3875 10.3396 18.3577 10.3546 18.3286C10.654 17.7984 10.8578 17.2122 10.9578 16.5929L11.3224 15.3747H14.6165V24.4286H8.30289C8.03646 24.4286 7.79223 24.5731 7.67004 24.8031L5.71154 28.4915C5.59776 28.7058 5.60718 28.9624 5.73634 29.1683C5.86563 29.3743 6.09586 29.5 6.34434 29.5H25.6418H25.6447C26.0378 29.5 26.3567 29.1903 26.3567 28.8084C26.3567 28.6729 26.3165 28.5465 26.2472 28.4399L24.3158 24.8031C24.1936 24.5731 23.9396 24.4286 23.683 24.4286H17.3696V15.146H17.3756V15.4186H20.6957L21.0367 16.5578C21.4349 19.1344 23.7225 21.1185 26.4844 21.1185C29.5257 21.1185 32 18.7152 32 15.7612C32 15.5977 31.939 15.4495 31.8414 15.3311L31.8408 15.331L28.7342 8.60264L28.0576 6.34221C28.0201 6.21697 27.9775 6.09407 27.93 5.97374C27.8825 5.85341 27.8301 5.73566 27.7731 5.62064C27.7161 5.50562 27.6544 5.39332 27.5884 5.28398C27.5224 5.17466 27.452 5.06826 27.3776 4.96501C27.3032 4.86176 27.2247 4.76165 27.1423 4.66487C27.06 4.56809 26.9739 4.47466 26.8842 4.38474C26.7944 4.29482 26.7012 4.2084 26.6047 4.12573C26.5082 4.04305 26.4083 3.96407 26.3054 3.88903C26.2026 3.81398 26.0967 3.74285 25.9881 3.67582C25.8794 3.6088 25.768 3.54592 25.6542 3.4873C25.5403 3.42869 25.4239 3.37438 25.3053 3.32456C25.1867 3.27475 25.0659 3.22939 24.9431 3.18877C24.8204 3.14814 24.6957 3.11222 24.5692 3.08117C24.4428 3.05011 24.3147 3.02394 24.1852 3.00285C24.0556 2.98177 23.9247 2.96575 23.7926 2.95501C23.6605 2.94428 23.5272 2.9388 23.393 2.9388C23.2785 2.9388 23.164 2.9428 23.0498 2.95069C22.9356 2.9586 22.8217 2.97042 22.7083 2.98618C22.5948 3.00194 22.4818 3.0216 22.3695 3.04515C22.2571 3.0687 22.1455 3.09614 22.0347 3.12742C21.9005 3.16531 21.7689 3.20837 21.6401 3.25644C21.5113 3.30452 21.3852 3.35761 21.2621 3.41553C21.139 3.47344 21.0189 3.53617 20.9021 3.60356C20.7852 3.67095 20.6715 3.74302 20.5613 3.81952C20.4511 3.89603 20.3443 3.97698 20.2413 4.06224C20.1382 4.1475 20.0388 4.23707 19.9433 4.33073C19.8478 4.42439 19.7562 4.52215 19.6687 4.62384C19.6486 4.6472 19.6304 4.67229 19.6114 4.69656H18.1503C18.0079 4.26628 17.7312 3.89518 17.3692 3.62645V1.19156C17.3692 0.809689 17.0504 0.5 16.6572 0.5H15.3281ZM16.0036 4.55828C16.4615 4.55828 16.8342 4.92012 16.8342 5.36506C16.8342 5.81 16.4615 6.17179 16.0036 6.17179C15.5455 6.17179 15.1729 5.80986 15.1729 5.36506C15.1729 4.92012 15.5455 4.55828 16.0036 4.55828ZM5.51481 7.07799L9.2046 15.0696H1.82502L5.51481 7.07799ZM26.4698 7.07799L30.1595 15.0696H22.7798L26.4698 7.07799ZM17.3756 7.09862V7.27946H17.3696V7.10374C17.3717 7.10213 17.3734 7.10015 17.3756 7.09862Z" fill="white"/>
</svg>
