<svg width="151" height="30" viewBox="0 0 151 30" fill="none" xmlns="http://www.w3.org/2000/svg">
<path d="M15.3281 0.5C14.935 0.5 14.6162 0.809689 14.6162 1.19156V3.64293C14.2651 3.91028 13.9971 4.27524 13.8577 4.69667H12.4479C12.4298 4.67372 12.4127 4.64991 12.3936 4.6278C12.3062 4.5261 12.2146 4.42831 12.1191 4.33464C12.0236 4.24098 11.9242 4.15146 11.8211 4.06619C11.7181 3.98092 11.6113 3.89994 11.5011 3.82343C11.3909 3.74692 11.2772 3.67486 11.1603 3.60747C11.0435 3.54008 10.9234 3.47732 10.8003 3.41941C10.6773 3.36151 10.5512 3.30846 10.4223 3.26039C10.2935 3.21232 10.1619 3.16925 10.0278 3.13138C9.91696 3.1001 9.80533 3.0727 9.69299 3.04914C9.58064 3.02559 9.46761 3.00593 9.35414 2.99016C9.24066 2.97441 9.12672 2.96255 9.01253 2.95464C8.89833 2.94673 8.78389 2.94278 8.66937 2.94278C8.5352 2.94278 8.40195 2.94824 8.26984 2.95897C8.13772 2.96971 8.00677 2.98567 7.87723 3.00676C7.7477 3.02786 7.61953 3.05407 7.49312 3.08512C7.36671 3.11617 7.24203 3.15213 7.11927 3.19276C6.9965 3.23339 6.87568 3.27866 6.75709 3.32847C6.6385 3.37829 6.52214 3.43264 6.40828 3.49126C6.2944 3.54987 6.18301 3.61279 6.07438 3.67981C5.96575 3.74683 5.85988 3.81797 5.75703 3.89302C5.65418 3.96806 5.55428 4.047 5.45774 4.12967C5.36119 4.21235 5.26799 4.29877 5.17828 4.3887C5.08858 4.47862 5.00239 4.57207 4.92006 4.66885C4.83773 4.76563 4.75921 4.86575 4.68478 4.969C4.61035 5.07225 4.53998 5.17861 4.47399 5.28793C4.40799 5.39726 4.34637 5.50957 4.28935 5.6246C4.23233 5.73962 4.17994 5.85737 4.13242 5.9777C4.0849 6.09802 4.04226 6.22091 4.00478 6.34615L3.47361 8.12089L0.127754 15.3673C0.0477167 15.4792 0 15.6146 0 15.7612C0 18.7152 2.47432 21.1185 5.51563 21.1185C6.36908 21.1185 7.17464 20.9237 7.89665 20.5861C7.9047 20.5827 7.91299 20.5798 7.92102 20.5764C8.06551 20.5145 8.20676 20.4461 8.34427 20.3714C8.48178 20.2966 8.61558 20.2156 8.74513 20.1286C8.87467 20.0416 9.00003 19.9486 9.12064 19.8499C9.24124 19.7513 9.35711 19.6471 9.46778 19.5375C9.57847 19.4279 9.68395 19.3129 9.7837 19.193C9.88348 19.0731 9.97754 18.9482 10.0654 18.8187C10.1533 18.6891 10.235 18.5548 10.3099 18.4162C10.3255 18.3875 10.3396 18.3577 10.3546 18.3286C10.654 17.7984 10.8578 17.2122 10.9578 16.5929L11.3224 15.3747H14.6165V24.4286H8.30289C8.03646 24.4286 7.79223 24.5731 7.67004 24.8031L5.71154 28.4915C5.59776 28.7058 5.60718 28.9624 5.73634 29.1683C5.86563 29.3743 6.09586 29.5 6.34434 29.5H25.6418H25.6447C26.0378 29.5 26.3567 29.1903 26.3567 28.8084C26.3567 28.6729 26.3165 28.5465 26.2472 28.4399L24.3158 24.8031C24.1936 24.5731 23.9396 24.4286 23.683 24.4286H17.3696V15.146H17.3756V15.4186H20.6957L21.0367 16.5578C21.4349 19.1344 23.7225 21.1185 26.4844 21.1185C29.5257 21.1185 32 18.7152 32 15.7612C32 15.5977 31.939 15.4495 31.8414 15.3311L31.8408 15.331L28.7342 8.60264L28.0576 6.34221C28.0201 6.21697 27.9775 6.09407 27.93 5.97374C27.8825 5.85341 27.8301 5.73566 27.7731 5.62064C27.7161 5.50562 27.6544 5.39332 27.5884 5.28398C27.5224 5.17466 27.452 5.06826 27.3776 4.96501C27.3032 4.86176 27.2247 4.76165 27.1423 4.66487C27.06 4.56809 26.9739 4.47466 26.8842 4.38474C26.7944 4.29482 26.7012 4.2084 26.6047 4.12573C26.5082 4.04305 26.4083 3.96407 26.3054 3.88903C26.2026 3.81398 26.0967 3.74285 25.9881 3.67582C25.8794 3.6088 25.768 3.54592 25.6542 3.4873C25.5403 3.42869 25.4239 3.37438 25.3053 3.32456C25.1867 3.27475 25.0659 3.22939 24.9431 3.18877C24.8204 3.14814 24.6957 3.11222 24.5692 3.08117C24.4428 3.05011 24.3147 3.02394 24.1852 3.00285C24.0556 2.98177 23.9247 2.96575 23.7926 2.95501C23.6605 2.94428 23.5272 2.9388 23.393 2.9388C23.2785 2.9388 23.164 2.9428 23.0498 2.95069C22.9356 2.9586 22.8217 2.97042 22.7083 2.98618C22.5948 3.00194 22.4818 3.0216 22.3695 3.04515C22.2571 3.0687 22.1455 3.09614 22.0347 3.12742C21.9005 3.16531 21.7689 3.20837 21.6401 3.25644C21.5113 3.30452 21.3852 3.35761 21.2621 3.41553C21.139 3.47344 21.0189 3.53617 20.9021 3.60356C20.7852 3.67095 20.6715 3.74302 20.5613 3.81952C20.4511 3.89603 20.3443 3.97698 20.2413 4.06224C20.1382 4.1475 20.0388 4.23707 19.9433 4.33073C19.8478 4.42439 19.7562 4.52215 19.6687 4.62384C19.6486 4.6472 19.6304 4.67229 19.6114 4.69656H18.1503C18.0079 4.26628 17.7312 3.89518 17.3692 3.62645V1.19156C17.3692 0.809689 17.0504 0.5 16.6572 0.5H15.3281ZM16.0036 4.55828C16.4615 4.55828 16.8342 4.92012 16.8342 5.36506C16.8342 5.81 16.4615 6.17179 16.0036 6.17179C15.5455 6.17179 15.1729 5.80986 15.1729 5.36506C15.1729 4.92012 15.5455 4.55828 16.0036 4.55828ZM5.51481 7.07799L9.2046 15.0696H1.82502L5.51481 7.07799ZM26.4698 7.07799L30.1595 15.0696H22.7798L26.4698 7.07799ZM17.3756 7.09862V7.27946H17.3696V7.10374C17.3717 7.10213 17.3734 7.10015 17.3756 7.09862Z" fill="white"/>
<path d="M45.36 19.3C45.36 20.4867 45.1333 21.5 44.68 22.34C44.2267 23.18 43.6 23.82 42.8 24.26C42 24.7133 41.0867 24.96 40.06 25V22.96C40.9933 22.9067 41.76 22.5867 42.36 22C42.96 21.4133 43.26 20.4933 43.26 19.24V7.5H45.36V19.3ZM48.2819 17.74C48.2819 16.9 48.4819 16.1467 48.8819 15.48C49.2819 14.8 49.8352 14.2667 50.5419 13.88C51.2485 13.4933 52.0552 13.3 52.9619 13.3C53.8819 13.3 54.6819 13.4933 55.3619 13.88C56.0552 14.2667 56.5885 14.8 56.9619 15.48C57.3485 16.1467 57.5419 16.9 57.5419 17.74C57.5419 18.58 57.3485 19.34 56.9619 20.02C56.5752 20.6867 56.0352 21.22 55.3419 21.62C54.6619 22.0067 53.8552 22.2 52.9219 22.2C52.0419 22.2 51.2485 22.02 50.5419 21.66C49.8485 21.3 49.2952 20.7867 48.8819 20.12C48.4819 19.44 48.2819 18.6467 48.2819 17.74ZM50.3219 17.76C50.3219 18.28 50.4352 18.7533 50.6619 19.18C50.8885 19.5933 51.1952 19.9267 51.5819 20.18C51.9819 20.42 52.4219 20.54 52.9019 20.54C53.6619 20.54 54.2819 20.2733 54.7619 19.74C55.2552 19.2067 55.5019 18.5467 55.5019 17.76C55.5019 16.9733 55.2552 16.3133 54.7619 15.78C54.2819 15.2333 53.6619 14.96 52.9019 14.96C52.4085 14.96 51.9685 15.0867 51.5819 15.34C51.1952 15.5933 50.8885 15.9333 50.6619 16.36C50.4352 16.7867 50.3219 17.2533 50.3219 17.76ZM64.0584 26.16C63.0984 26.16 62.3118 25.9933 61.6984 25.66C61.0851 25.3267 60.5184 24.9333 59.9984 24.48L61.1984 23.1C61.6118 23.5 62.0384 23.8133 62.4784 24.04C62.9318 24.2667 63.4451 24.38 64.0184 24.38C64.9251 24.38 65.6251 24.1667 66.1184 23.74C66.6118 23.3133 66.8651 22.74 66.8784 22.02V20.5C66.5984 20.9933 66.1651 21.4 65.5784 21.72C65.0051 22.04 64.3118 22.2 63.4984 22.2C62.7251 22.2 62.0184 22.0067 61.3784 21.62C60.7384 21.2333 60.2251 20.7067 59.8384 20.04C59.4518 19.3733 59.2584 18.62 59.2584 17.78C59.2584 16.9133 59.4584 16.1467 59.8584 15.48C60.2718 14.8 60.8118 14.2667 61.4784 13.88C62.1451 13.4933 62.8584 13.3 63.6184 13.3C64.3384 13.3 64.9918 13.4333 65.5784 13.7C66.1651 13.9667 66.6051 14.3133 66.8984 14.74L67.0384 13.64H68.8984V22.06C68.8984 22.82 68.6984 23.5067 68.2984 24.12C67.8984 24.7467 67.3384 25.24 66.6184 25.6C65.8984 25.9733 65.0451 26.16 64.0584 26.16ZM61.2984 17.72C61.2984 18.2533 61.4184 18.7333 61.6584 19.16C61.9118 19.5867 62.2451 19.9267 62.6584 20.18C63.0851 20.42 63.5584 20.54 64.0784 20.54C64.7851 20.54 65.3851 20.36 65.8784 20C66.3718 19.6267 66.7051 19.1533 66.8784 18.58V16.86C66.7051 16.2867 66.3651 15.8267 65.8584 15.48C65.3518 15.12 64.7584 14.94 64.0784 14.94C63.5584 14.94 63.0851 15.06 62.6584 15.3C62.2451 15.54 61.9118 15.8667 61.6584 16.28C61.4184 16.6933 61.2984 17.1733 61.2984 17.72ZM71.3288 17.74C71.3288 16.9 71.5288 16.1467 71.9288 15.48C72.3288 14.8 72.8821 14.2667 73.5888 13.88C74.2954 13.4933 75.1021 13.3 76.0088 13.3C76.9288 13.3 77.7288 13.4933 78.4088 13.88C79.1021 14.2667 79.6354 14.8 80.0088 15.48C80.3954 16.1467 80.5888 16.9 80.5888 17.74C80.5888 18.58 80.3954 19.34 80.0088 20.02C79.6221 20.6867 79.0821 21.22 78.3888 21.62C77.7088 22.0067 76.9021 22.2 75.9688 22.2C75.0888 22.2 74.2954 22.02 73.5888 21.66C72.8954 21.3 72.3421 20.7867 71.9288 20.12C71.5288 19.44 71.3288 18.6467 71.3288 17.74ZM73.3688 17.76C73.3688 18.28 73.4821 18.7533 73.7088 19.18C73.9354 19.5933 74.2421 19.9267 74.6288 20.18C75.0288 20.42 75.4688 20.54 75.9488 20.54C76.7088 20.54 77.3288 20.2733 77.8088 19.74C78.3021 19.2067 78.5488 18.5467 78.5488 17.76C78.5488 16.9733 78.3021 16.3133 77.8088 15.78C77.3288 15.2333 76.7088 14.96 75.9488 14.96C75.4554 14.96 75.0154 15.0867 74.6288 15.34C74.2421 15.5933 73.9354 15.9333 73.7088 16.36C73.4821 16.7867 73.3688 17.2533 73.3688 17.76ZM85.4453 22.18C84.832 22.18 84.2453 22.0733 83.6853 21.86C83.1253 21.6333 82.652 21.3133 82.2653 20.9L83.1253 19.74C83.472 20.0733 83.832 20.3267 84.2053 20.5C84.592 20.6733 84.952 20.76 85.2853 20.76C85.672 20.76 86.012 20.6867 86.3053 20.54C86.5986 20.38 86.7453 20.12 86.7453 19.76C86.7453 19.4667 86.6453 19.24 86.4453 19.08C86.2586 18.92 86.0186 18.7867 85.7253 18.68C85.432 18.5733 85.1186 18.4733 84.7853 18.38C83.3586 17.9133 82.6453 17.0933 82.6453 15.92C82.6453 15.48 82.752 15.0667 82.9653 14.68C83.192 14.28 83.532 13.96 83.9853 13.72C84.4386 13.4667 84.9986 13.34 85.6653 13.34C86.252 13.34 86.7786 13.4133 87.2453 13.56C87.712 13.6933 88.1453 13.9267 88.5453 14.26L87.7653 15.48C87.5253 15.24 87.2386 15.06 86.9053 14.94C86.5853 14.8067 86.292 14.7333 86.0253 14.72C85.6653 14.72 85.352 14.8067 85.0853 14.98C84.8186 15.14 84.6853 15.36 84.6853 15.64C84.672 16.0133 84.8253 16.2867 85.1453 16.46C85.4653 16.62 85.832 16.7667 86.2453 16.9C86.2986 16.9133 86.352 16.9333 86.4053 16.96C86.472 16.9733 86.5386 16.9933 86.6053 17.02C87.2186 17.22 87.7253 17.4933 88.1253 17.84C88.5386 18.1867 88.7453 18.6933 88.7453 19.36C88.7453 19.8667 88.6253 20.3333 88.3853 20.76C88.1453 21.1867 87.7786 21.5333 87.2853 21.8C86.8053 22.0533 86.192 22.18 85.4453 22.18ZM91.7866 7.5H93.8666V19.98H101.147V22H91.7866V7.5ZM107.727 22.2C106.767 22.2 105.94 22.0133 105.247 21.64C104.553 21.2533 104.02 20.7267 103.647 20.06C103.273 19.38 103.087 18.6133 103.087 17.76C103.087 16.9333 103.293 16.1867 103.707 15.52C104.133 14.84 104.7 14.3 105.407 13.9C106.113 13.5 106.9 13.3 107.767 13.3C108.887 13.3 109.813 13.6267 110.547 14.28C111.293 14.92 111.793 15.8267 112.047 17L105.507 19.26C105.747 19.6467 106.06 19.9467 106.447 20.16C106.847 20.3733 107.287 20.48 107.767 20.48C108.127 20.48 108.473 20.42 108.807 20.3C109.14 20.1667 109.453 19.9933 109.747 19.78L110.667 21.28C110.24 21.56 109.767 21.7867 109.247 21.96C108.74 22.12 108.233 22.2 107.727 22.2ZM105.107 18.06L109.767 16.36C109.593 15.9733 109.333 15.6333 108.987 15.34C108.653 15.0467 108.2 14.9 107.627 14.9C106.88 14.9 106.267 15.16 105.787 15.68C105.32 16.1867 105.087 16.84 105.087 17.64C105.087 17.7867 105.093 17.9267 105.107 18.06ZM118.394 26.16C117.434 26.16 116.648 25.9933 116.034 25.66C115.421 25.3267 114.854 24.9333 114.334 24.48L115.534 23.1C115.948 23.5 116.374 23.8133 116.814 24.04C117.268 24.2667 117.781 24.38 118.354 24.38C119.261 24.38 119.961 24.1667 120.454 23.74C120.948 23.3133 121.201 22.74 121.214 22.02V20.5C120.934 20.9933 120.501 21.4 119.914 21.72C119.341 22.04 118.648 22.2 117.834 22.2C117.061 22.2 116.354 22.0067 115.714 21.62C115.074 21.2333 114.561 20.7067 114.174 20.04C113.788 19.3733 113.594 18.62 113.594 17.78C113.594 16.9133 113.794 16.1467 114.194 15.48C114.608 14.8 115.148 14.2667 115.814 13.88C116.481 13.4933 117.194 13.3 117.954 13.3C118.674 13.3 119.328 13.4333 119.914 13.7C120.501 13.9667 120.941 14.3133 121.234 14.74L121.374 13.64H123.234V22.06C123.234 22.82 123.034 23.5067 122.634 24.12C122.234 24.7467 121.674 25.24 120.954 25.6C120.234 25.9733 119.381 26.16 118.394 26.16ZM115.634 17.72C115.634 18.2533 115.754 18.7333 115.994 19.16C116.248 19.5867 116.581 19.9267 116.994 20.18C117.421 20.42 117.894 20.54 118.414 20.54C119.121 20.54 119.721 20.36 120.214 20C120.708 19.6267 121.041 19.1533 121.214 18.58V16.86C121.041 16.2867 120.701 15.8267 120.194 15.48C119.688 15.12 119.094 14.94 118.414 14.94C117.894 14.94 117.421 15.06 116.994 15.3C116.581 15.54 116.248 15.8667 115.994 16.28C115.754 16.6933 115.634 17.1733 115.634 17.72ZM129.885 22.2C129.098 22.2 128.385 22.0333 127.745 21.7C127.105 21.3667 126.598 20.88 126.225 20.24C125.851 19.5867 125.665 18.78 125.665 17.82C125.665 16.8867 125.858 16.0867 126.245 15.42C126.645 14.74 127.165 14.22 127.805 13.86C128.458 13.4867 129.165 13.3 129.925 13.3C130.698 13.3 131.338 13.46 131.845 13.78C132.351 14.0867 132.751 14.46 133.045 14.9L133.185 13.64H135.045V22H133.025V20.68C132.878 20.8667 132.658 21.08 132.365 21.32C132.071 21.56 131.718 21.7667 131.305 21.94C130.891 22.1133 130.418 22.2 129.885 22.2ZM130.425 20.54C131.091 20.54 131.651 20.3667 132.105 20.02C132.571 19.66 132.878 19.1733 133.025 18.56V16.84C132.865 16.2933 132.538 15.84 132.045 15.48C131.565 15.12 131.005 14.94 130.365 14.94C129.885 14.94 129.445 15.06 129.045 15.3C128.645 15.5267 128.325 15.8533 128.085 16.28C127.845 16.6933 127.725 17.1733 127.725 17.72C127.725 18.2533 127.845 18.7333 128.085 19.16C128.338 19.5867 128.671 19.9267 129.085 20.18C129.498 20.42 129.945 20.54 130.425 20.54ZM138.201 13.64H140.221V22H138.201V13.64ZM138.101 10.64C138.101 10.3333 138.221 10.0733 138.461 9.86C138.714 9.64667 138.988 9.54 139.281 9.54C139.574 9.54 139.841 9.64667 140.081 9.86C140.321 10.0733 140.441 10.3333 140.441 10.64C140.441 10.9733 140.321 11.24 140.081 11.44C139.841 11.64 139.574 11.74 139.281 11.74C138.988 11.74 138.714 11.64 138.461 11.44C138.221 11.24 138.101 10.9733 138.101 10.64ZM145.797 22.18C145.184 22.18 144.597 22.0733 144.037 21.86C143.477 21.6333 143.004 21.3133 142.617 20.9L143.477 19.74C143.824 20.0733 144.184 20.3267 144.557 20.5C144.944 20.6733 145.304 20.76 145.637 20.76C146.024 20.76 146.364 20.6867 146.657 20.54C146.95 20.38 147.097 20.12 147.097 19.76C147.097 19.4667 146.997 19.24 146.797 19.08C146.61 18.92 146.37 18.7867 146.077 18.68C145.784 18.5733 145.47 18.4733 145.137 18.38C143.71 17.9133 142.997 17.0933 142.997 15.92C142.997 15.48 143.104 15.0667 143.317 14.68C143.544 14.28 143.884 13.96 144.337 13.72C144.79 13.4667 145.35 13.34 146.017 13.34C146.604 13.34 147.13 13.4133 147.597 13.56C148.064 13.6933 148.497 13.9267 148.897 14.26L148.117 15.48C147.877 15.24 147.59 15.06 147.257 14.94C146.937 14.8067 146.644 14.7333 146.377 14.72C146.017 14.72 145.704 14.8067 145.437 14.98C145.17 15.14 145.037 15.36 145.037 15.64C145.024 16.0133 145.177 16.2867 145.497 16.46C145.817 16.62 146.184 16.7667 146.597 16.9C146.65 16.9133 146.704 16.9333 146.757 16.96C146.824 16.9733 146.89 16.9933 146.957 17.02C147.57 17.22 148.077 17.4933 148.477 17.84C148.89 18.1867 149.097 18.6933 149.097 19.36C149.097 19.8667 148.977 20.3333 148.737 20.76C148.497 21.1867 148.13 21.5333 147.637 21.8C147.157 22.0533 146.544 22.18 145.797 22.18Z" fill="white"/>
</svg>
